<svg width="38" height="42" viewBox="0 0 38 42" fill="none" xmlns="http://www.w3.org/2000/svg">
<g clip-path="url(#clip0)">
<path d="M15.4009 33.8506C14.9949 34.5569 14.4819 35.1961 13.8803 35.7455C13.2145 36.3797 12.3712 36.7959 11.4629 36.9386C12.7808 37.851 13.4748 38.2253 14.2078 38.7009C14.4105 37.851 15.2059 34.5524 15.3853 33.9286C15.3853 33.9286 15.3853 33.874 15.3853 33.8506" fill="white"/>
<path d="M21.7715 33.8506C22.1896 34.5595 22.7158 35.1989 23.3311 35.7455C23.9918 36.3781 24.8296 36.7943 25.7329 36.9386C24.415 37.851 23.7288 38.2253 22.9958 38.7009C22.793 37.851 21.9976 34.5524 21.8183 33.9286C21.8183 33.9286 21.8183 33.874 21.8183 33.8506" fill="white"/>
<path d="M10.8702 24.5946C10.3522 24.2721 9.77517 24.0557 9.17279 23.958C8.5704 23.8603 7.95461 23.8832 7.36114 24.0253C6.3323 24.3619 5.46876 25.075 4.94377 26.0216C4.82414 26.3948 4.80531 26.793 4.88918 27.1757C4.91488 27.2747 4.90745 27.3794 4.86802 27.4738C4.82859 27.5681 4.75933 27.6469 4.67084 27.6982C4.58153 27.7502 4.47712 27.77 4.37496 27.7544C4.27281 27.7388 4.17909 27.6887 4.10938 27.6124C3.64925 27.1238 3.26069 26.5725 2.95528 25.9748C2.36392 24.6795 2.12196 23.252 2.25346 21.8341C2.37823 20.2745 3.39196 18.9099 5.27908 17.7636C6.15204 17.3288 7.11071 17.0935 8.08577 17.0746C9.06082 17.0557 10.0279 17.2537 10.917 17.6544C12.5504 18.5952 13.898 19.9616 14.816 21.608C14.6913 21.1635 14.5431 20.6722 14.3793 20.103C13.7006 17.828 13.5407 15.4297 13.9115 13.0848C13.9582 12.6871 14.005 12.266 14.0362 11.8449C14.4246 8.9806 15.1577 6.17377 16.2197 3.48543C16.3132 3.29828 16.4536 2.96297 16.6408 2.51068C16.2872 2.49206 15.9368 2.43452 15.5958 2.33913C14.4976 1.97766 13.3777 1.68595 12.2427 1.46575C11.3927 1.36438 9.90329 1.13824 8.95193 1.98042C8.03582 2.80649 7.39832 3.89623 7.1272 5.09962C6.95263 5.83713 6.93178 6.60268 7.06594 7.34861C7.2001 8.09453 7.48639 8.80484 7.907 9.4353C8.7439 10.619 9.66655 11.7398 10.6675 12.7884L8.16434 11.7747C7.27303 11.3402 6.3333 11.013 5.36486 10.8C4.4213 10.6986 1.98053 10.9637 0.966789 12.6247C0.203765 13.8192 -0.123978 15.2404 0.0388274 16.6484C0.140201 17.6622 0.740647 19.4557 0.818627 20.1342C0.832388 21.3617 0.70152 22.5867 0.428727 23.7836C0.157782 25.2767 0.126194 26.8034 0.335151 28.3064C0.553495 29.3514 1.24752 30.7784 2.41722 31.1917C3.49159 31.5347 4.63738 31.5885 5.73916 31.3477C7.48455 30.689 9.18098 29.9072 10.8157 29.0083C11.7592 28.517 12.7729 27.6046 13.5527 27.6748C13.7116 27.6848 13.8686 27.7136 14.0206 27.7606C13.2254 26.4852 12.1608 25.3993 10.9014 24.579" fill="white"/>
<path d="M37.1732 16.6488C37.3504 15.2396 37.0275 13.8129 36.2608 12.6173C35.2549 10.9563 32.8141 10.6912 31.8705 10.7925C30.9021 11.0056 29.9624 11.3328 29.0711 11.7673L26.5601 12.781C27.5623 11.7313 28.4874 10.6107 29.3284 9.4279C29.7494 8.79763 30.036 8.08732 30.1702 7.34133C30.3043 6.59534 30.2832 5.82969 30.1082 5.09222C29.8435 3.88632 29.2049 2.79474 28.2835 1.97302C27.2931 1.12304 25.8115 1.34918 24.9537 1.45055C23.8238 1.67714 22.7091 1.97404 21.6162 2.33952C21.2712 2.44321 20.9153 2.50602 20.5557 2.52668C20.7038 2.87759 20.8676 3.26749 20.9846 3.50143C22.0491 6.19537 22.7874 9.00705 23.1836 11.8765C23.1836 12.2976 23.2616 12.7187 23.3006 13.1241C23.6723 15.4691 23.5125 17.8675 22.8327 20.1423C22.6767 20.696 22.5364 21.1795 22.4038 21.6162C23.3318 19.9915 24.6782 18.6452 26.3028 17.7172C27.1913 17.3153 28.1581 17.1159 29.1332 17.1335C30.1082 17.151 31.0672 17.385 31.9407 17.8185C33.7967 18.9025 34.8104 20.2749 34.9352 21.8345C35.068 23.2549 34.8261 24.6854 34.2333 25.983C33.9249 26.5788 33.5366 27.1298 33.0792 27.6206C33.0088 27.6957 32.9151 27.7449 32.8133 27.7605C32.7115 27.776 32.6075 27.757 32.5178 27.7064C32.4293 27.6551 32.36 27.5763 32.3206 27.4819C32.2812 27.3876 32.2737 27.2829 32.2994 27.1839C32.392 26.8045 32.3731 26.4065 32.2449 26.0376C32.0189 25.5473 31.687 25.1132 31.273 24.7667C30.859 24.4201 30.3733 24.1697 29.8509 24.0335C28.6439 23.7646 27.3797 23.9683 26.3184 24.6028C25.0424 25.4248 23.9618 26.516 23.1524 27.8C23.3158 27.7428 23.4864 27.7087 23.6593 27.6986C24.4391 27.6284 25.4528 28.5408 26.3964 29.0321C28.0248 29.9487 29.7252 30.7311 31.4806 31.3715C32.5828 31.5729 33.7164 31.5195 34.7948 31.2155C35.8397 30.8724 36.5883 29.6559 36.9159 28.3458C37.0754 26.8401 37.0413 25.3201 36.8145 23.823C36.5456 22.6254 36.4148 21.4009 36.4246 20.1735C36.4792 19.4951 37.0796 17.7016 37.2044 16.6878" fill="white"/>
<path d="M34.0151 21.8972C33.9138 20.6574 33.0482 19.5578 31.434 18.5441C30.706 18.1961 29.9122 18.0071 29.1055 17.9896C28.2988 17.9721 27.4976 18.1266 26.7552 18.4427C24.7194 19.6159 23.1912 21.5025 22.4663 23.7376C22.1927 24.5234 21.9688 25.3255 21.7957 26.1394C21.7172 26.7628 21.6756 27.3903 21.6709 28.0187H22.0374C22.5833 26.4201 24.6185 24.5564 25.835 23.8C27.0891 23.0451 28.5829 22.7942 30.0148 23.0981C30.6979 23.2653 31.3339 23.586 31.8745 24.036C32.415 24.486 32.8457 25.0533 33.134 25.6949L33.2041 25.9366C33.2821 25.8118 33.3523 25.6793 33.4225 25.5467C33.9508 24.4018 34.1609 23.1358 34.0307 21.8816" fill="white"/>
<path d="M22.0836 32.408C22.5422 33.4598 23.214 34.4051 24.0565 35.1841C24.447 35.5421 24.9084 35.814 25.4109 35.9819C25.9134 36.1499 26.4456 36.2101 26.9729 36.1588C27.4351 36.0749 27.8736 35.8921 28.2586 35.6229C28.6435 35.3537 28.9657 35.0045 29.2031 34.5992L29.2889 34.4822C29.3562 34.3882 29.4162 34.2891 29.4683 34.1859C29.3801 34.229 29.2889 34.2655 29.1953 34.2951C27.9047 34.4971 26.584 34.2435 25.4601 33.5777C24.4931 32.9644 23.6538 32.17 22.9881 31.2383V31.2383C22.6172 31.312 22.2422 31.364 21.8652 31.3942C21.9198 31.6828 21.9978 32.0259 22.0914 32.3534" fill="white"/>
<path d="M14.192 31.3164C13.5127 32.2294 12.6659 33.0048 11.6966 33.6012C10.5727 34.267 9.25202 34.5207 7.96141 34.3186L7.68848 34.2094C7.7406 34.3127 7.80056 34.4117 7.86783 34.5058L7.95361 34.6227C8.19103 35.028 8.51323 35.3772 8.89817 35.6464C9.2831 35.9156 9.72167 36.0984 10.1838 36.1823C10.7111 36.2337 11.2434 36.1734 11.7458 36.0054C12.2483 35.8375 12.7098 35.5657 13.1003 35.2076C13.9428 34.4286 14.6146 33.4833 15.0732 32.4315C15.1631 32.1186 15.2359 31.801 15.2915 31.4801C14.9165 31.4475 14.5439 31.3902 14.1764 31.3086V31.3086" fill="white"/>
<path d="M15.3937 26.1394C15.227 25.3248 15.0055 24.5224 14.7308 23.7376C14.006 21.5025 12.4778 19.6159 10.4419 18.4427C9.69955 18.1266 8.89835 17.9721 8.09164 17.9896C7.28492 18.0071 6.49116 18.1961 5.76315 18.5441C4.14117 19.4955 3.27559 20.6574 3.17422 21.8972C3.04405 23.1514 3.25416 24.4174 3.78246 25.5623C3.85264 25.7027 3.92283 25.8274 4.00081 25.9522L4.07099 25.7339C4.38968 25.1144 4.83026 24.5658 5.36627 24.1209C5.90228 23.6761 6.52267 23.3441 7.19019 23.1449C7.90172 22.9752 8.63997 22.9491 9.3617 23.0683C10.0834 23.1874 10.7741 23.4494 11.3933 23.8389C12.6176 24.6187 14.6763 26.4825 15.2065 28.1045H15.5574C15.556 27.4576 15.5117 26.8115 15.4249 26.1705" fill="white"/>
<path d="M22.3878 13.202C22.3411 12.7965 22.2943 12.3676 22.2553 11.9387C21.8743 9.18573 21.1702 6.48721 20.1576 3.899C20.0328 3.64946 19.8535 3.24397 19.5962 2.58893V2.51875C19.2764 1.73895 18.9099 0.74081 18.637 0C18.3251 0.779799 17.9352 1.70776 17.6311 2.51875V2.58893C17.3737 3.21277 17.1944 3.64166 17.0696 3.899C16.0514 6.48591 15.3446 9.18479 14.9641 11.9387C14.9641 12.3676 14.8862 12.7965 14.8394 13.202C14.4843 15.4209 14.6308 17.6911 15.2683 19.8459C15.9219 21.789 16.443 23.7743 16.8279 25.788C16.9074 26.539 16.9335 27.2947 16.9058 28.0494H18.6838C19.1439 28.0494 19.604 28.0494 20.0406 28.0494H20.337C20.3119 27.3023 20.3406 26.5543 20.4227 25.8114C20.8012 23.7962 21.3224 21.8105 21.9823 19.8693C22.6149 17.7052 22.7535 15.4268 22.3878 13.202V13.202Z" fill="white"/>
<path d="M18.4729 31.543H16.7184C16.6248 32.2214 16.4298 33.6562 16.2739 34.2021C16.1179 34.7479 15.2056 38.4676 14.9404 39.5671L18.6133 42.0079L22.2549 39.5749C21.9898 38.4754 21.093 34.7557 20.9293 34.1943C20.7368 33.3159 20.5885 32.4284 20.4848 31.5352C19.8688 31.5352 19.2137 31.5352 18.5431 31.5352L18.4729 31.543Z" fill="white"/>
<path d="M23.3943 29.7339C23.3943 29.2582 23.3085 29.1023 22.9966 29.0399C22.6583 28.9893 22.3171 28.9607 21.9751 28.9541H21.6866C21.2655 28.9541 20.8132 28.9541 20.3453 28.9541H20.0412H18.6609H16.8518C16.3761 28.9541 15.916 28.9541 15.5028 28.9541H15.2064C14.8789 28.9541 14.5826 28.9541 14.3253 29.0243C13.834 29.1413 13.834 29.2894 13.834 29.6793C13.834 30.0692 13.8808 30.2174 14.3175 30.311L14.7152 30.3967C14.9413 30.4357 15.183 30.4591 15.4404 30.4825C15.8537 30.5215 16.3059 30.5449 16.7894 30.5527C17.2729 30.5605 17.8889 30.5527 18.4738 30.5527H18.544C19.1912 30.5527 19.8228 30.5527 20.4155 30.5527C21.0081 30.5527 21.3357 30.5527 21.7489 30.4825C22.0063 30.4825 22.248 30.4357 22.4742 30.3967C22.6502 30.3734 22.8247 30.3396 22.9966 30.2954C23.4021 30.2252 23.4021 30.1706 23.4021 29.7885L23.3943 29.7339Z" fill="white"/>
</g>
<defs>
<clipPath id="clip0">
<rect width="37.212" height="42" fill="white"/>
</clipPath>
</defs>
</svg>
