<svg width="24" height="24" viewBox="0 0 24 24" fill="none" xmlns="http://www.w3.org/2000/svg">
<path fill-rule="evenodd" clip-rule="evenodd" d="M11.8789 20.4473C16.2972 20.4473 19.8789 16.8655 19.8789 12.4473C19.8789 8.02899 16.2972 4.44727 11.8789 4.44727C7.46063 4.44727 3.87891 8.02899 3.87891 12.4473C3.87891 16.8655 7.46063 20.4473 11.8789 20.4473ZM11.8789 22.4473C17.4018 22.4473 21.8789 17.9701 21.8789 12.4473C21.8789 6.92442 17.4018 2.44727 11.8789 2.44727C6.35606 2.44727 1.87891 6.92442 1.87891 12.4473C1.87891 17.9701 6.35606 22.4473 11.8789 22.4473Z" fill="#192028"/>
<path d="M12.7933 10.3629H10.9733V17.4469H12.7933V10.3629ZM12.8073 7.42285H10.9453V8.90685H12.8073V7.42285Z" fill="#192028"/>
</svg>
