<svg width="24" height="24" viewBox="0 0 24 24" fill="none" xmlns="http://www.w3.org/2000/svg">
<path fill-rule="evenodd" clip-rule="evenodd" d="M8.07729 1.41283C8.51918 1.08155 9.14597 1.17121 9.47725 1.6131L12.2105 5.25888L14.9437 1.6131C15.275 1.17121 15.9018 1.08155 16.3437 1.41283C16.7856 1.74412 16.8752 2.3709 16.5439 2.81279L13.4603 6.92598L23.3879 20.1681C23.981 20.9592 23.4165 22.0879 22.4278 22.0879H1.99319C1.00445 22.0879 0.439957 20.9593 1.03305 20.1681L10.9607 6.92598L7.87702 2.81279C7.54573 2.3709 7.6354 1.74412 8.07729 1.41283ZM12.2105 8.59308L3.59281 20.0879H20.8282L12.2105 8.59308Z" fill="#192028"/>
</svg>
