<svg width="24" height="24" viewBox="0 0 24 24" fill="none" xmlns="http://www.w3.org/2000/svg">
<path fill-rule="evenodd" clip-rule="evenodd" d="M3.48242 2.42266C3.48242 1.75992 4.01967 1.22266 4.68242 1.22266H18.2824C18.9452 1.22266 19.4824 1.75992 19.4824 2.42266V4.22266C19.4824 4.77494 19.0347 5.22266 18.4824 5.22266C17.9301 5.22266 17.4824 4.77494 17.4824 4.22266V3.22266H5.48242V18.2227H8.48242C9.03471 18.2227 9.48242 18.6704 9.48242 19.2227C9.48242 19.7749 9.03471 20.2227 8.48242 20.2227H4.68242C4.01968 20.2227 3.48242 19.6854 3.48242 19.0227V2.42266Z" fill="#192028"/>
<path fill-rule="evenodd" clip-rule="evenodd" d="M15.4824 8.22266C13.2733 8.22266 11.4824 10.0135 11.4824 12.2227C11.4824 14.4318 13.2733 16.2227 15.4824 16.2227C17.6916 16.2227 19.4824 14.4318 19.4824 12.2227C19.4824 10.0135 17.6916 8.22266 15.4824 8.22266ZM9.48242 12.2227C9.48242 8.90895 12.1687 6.22266 15.4824 6.22266C18.7961 6.22266 21.4824 8.90895 21.4824 12.2227C21.4824 15.5364 18.7961 18.2227 15.4824 18.2227C12.1687 18.2227 9.48242 15.5364 9.48242 12.2227Z" fill="#192028"/>
<path fill-rule="evenodd" clip-rule="evenodd" d="M13.4824 20.6046V16.2227H11.4824V21.899C11.4824 22.7911 12.4212 23.3713 13.2191 22.9724L15.4824 21.8407L17.7458 22.9724C18.5436 23.3713 19.4824 22.7911 19.4824 21.899V16.2227H17.4824V20.6046L16.0191 19.873C15.6812 19.704 15.2836 19.704 14.9458 19.873L13.4824 20.6046Z" fill="#192028"/>
</svg>
