<svg width="24" height="24" viewBox="0 0 24 24" fill="none" xmlns="http://www.w3.org/2000/svg">
<path fill-rule="evenodd" clip-rule="evenodd" d="M19.5518 4.11914C19.3098 4.11914 19.0714 4.16382 18.851 4.24925C18.6307 4.33465 18.4346 4.45825 18.2724 4.61C18.2634 4.61844 18.2542 4.62671 18.2449 4.6348L4.41671 16.6449C4.27176 16.7708 4.16611 16.9358 4.11239 17.1201L3.29525 19.9236L6.53574 19.0967C6.6867 19.0581 6.82658 18.9849 6.9442 18.8827L20.8431 6.81118C20.9994 6.66211 21.12 6.48979 21.2017 6.30529C21.2853 6.11633 21.3274 5.91638 21.3274 5.71622C21.3274 5.51607 21.2853 5.31611 21.2017 5.12715C21.118 4.93799 20.9932 4.76163 20.8312 4.61C20.669 4.45825 20.4729 4.33465 20.2526 4.24925C20.0322 4.16382 19.7939 4.11914 19.5518 4.11914ZM18.1283 2.38441C18.5813 2.20881 19.0649 2.11914 19.5518 2.11914C20.0387 2.11914 20.5223 2.20881 20.9754 2.38441C21.4285 2.56005 21.8444 2.81904 22.1977 3.14961C22.5511 3.48031 22.8353 3.87655 23.0305 4.31757C23.2258 4.75879 23.3274 5.23427 23.3274 5.71622C23.3274 6.19817 23.2258 6.67365 23.0305 7.11487C22.8353 7.5559 22.5511 7.95213 22.1977 8.28283C22.1887 8.29127 22.1795 8.29953 22.1702 8.30763L8.25567 20.3927C7.90278 20.6992 7.48316 20.919 7.03027 21.0345L2.43173 22.208C1.53155 22.4378 0.722986 21.6014 0.982954 20.7095L2.19229 16.5604C2.35346 16.0075 2.6704 15.5126 3.10525 15.1349L16.9206 3.136C17.2707 2.81193 17.6814 2.55763 18.1283 2.38441Z" fill="#192028"/>
</svg>
