<svg width="23" height="24" viewBox="0 0 23 24" fill="none" xmlns="http://www.w3.org/2000/svg">
<path fill-rule="evenodd" clip-rule="evenodd" d="M5.59375 4.77539C4.01587 4.77539 2.65625 6.13116 2.65625 7.90925V15.3915C2.65625 17.1696 4.01587 18.5254 5.59375 18.5254H17.4062C18.9841 18.5254 20.3438 17.1696 20.3438 15.3915V7.90925C20.3438 6.13116 18.9841 4.77539 17.4062 4.77539H5.59375ZM0.65625 7.90925C0.65625 5.11942 2.82069 2.77539 5.59375 2.77539H17.4062C20.1793 2.77539 22.3438 5.11942 22.3438 7.90925V15.3915C22.3438 18.1814 20.1793 20.5254 17.4062 20.5254H5.59375C2.82069 20.5254 0.65625 18.1814 0.65625 15.3915V7.90925Z" fill="#192028"/>
<path fill-rule="evenodd" clip-rule="evenodd" d="M9.65786 12.4694L2.02637 6.53378L3.25425 4.95508L10.8857 10.8907C11.2469 11.1715 11.7525 11.1715 12.1136 10.8907L16.4229 7.53906C16.8588 7.19999 17.4871 7.27853 17.8261 7.71447C18.1652 8.15042 18.0867 8.7787 17.6507 9.11777L13.3415 12.4694C12.2582 13.312 10.7412 13.312 9.65786 12.4694Z" fill="#192028"/>
</svg>
