<svg width="24" height="24" viewBox="0 0 24 24" fill="none" xmlns="http://www.w3.org/2000/svg">
<path fill-rule="evenodd" clip-rule="evenodd" d="M11.9775 20.8516C16.81 20.8516 20.7275 16.9341 20.7275 12.1016C20.7275 7.26907 16.81 3.35156 11.9775 3.35156C7.14505 3.35156 3.22754 7.26907 3.22754 12.1016C3.22754 16.9341 7.14505 20.8516 11.9775 20.8516ZM11.9775 22.8516C17.9146 22.8516 22.7275 18.0386 22.7275 12.1016C22.7275 6.1645 17.9146 1.35156 11.9775 1.35156C6.04048 1.35156 1.22754 6.1645 1.22754 12.1016C1.22754 18.0386 6.04048 22.8516 11.9775 22.8516Z" fill="#192028"/>
<path fill-rule="evenodd" clip-rule="evenodd" d="M6.67773 12.1016C6.67773 11.5493 7.12545 11.1016 7.67773 11.1016H16.2777C16.83 11.1016 17.2777 11.5493 17.2777 12.1016C17.2777 12.6538 16.83 13.1016 16.2777 13.1016H7.67773C7.12545 13.1016 6.67773 12.6538 6.67773 12.1016Z" fill="#192028"/>
<path fill-rule="evenodd" clip-rule="evenodd" d="M11.9775 6.80176C12.5298 6.80176 12.9775 7.24947 12.9775 7.80176L12.9775 16.4018C12.9775 16.954 12.5298 17.4018 11.9775 17.4018C11.4253 17.4018 10.9775 16.954 10.9775 16.4018L10.9775 7.80176C10.9775 7.24947 11.4253 6.80176 11.9775 6.80176Z" fill="#192028"/>
</svg>
