<svg width="24" height="24" viewBox="0 0 24 24" fill="none" xmlns="http://www.w3.org/2000/svg">
<path fill-rule="evenodd" clip-rule="evenodd" d="M11.8965 21.1162C16.6842 21.1162 20.5654 17.235 20.5654 12.4473C20.5654 7.65954 16.6842 3.77832 11.8965 3.77832C7.10876 3.77832 3.22754 7.65954 3.22754 12.4473C3.22754 17.235 7.10876 21.1162 11.8965 21.1162ZM11.8965 23.1162C17.7888 23.1162 22.5654 18.3396 22.5654 12.4473C22.5654 6.55497 17.7888 1.77832 11.8965 1.77832C6.00419 1.77832 1.22754 6.55497 1.22754 12.4473C1.22754 18.3396 6.00419 23.1162 11.8965 23.1162Z" fill="#192028"/>
<path fill-rule="evenodd" clip-rule="evenodd" d="M7.98918 8.54011C8.37971 8.14959 9.01287 8.14959 9.4034 8.54011L15.8056 14.9423C16.1961 15.3328 16.1961 15.966 15.8056 16.3565C15.415 16.747 14.7819 16.747 14.3914 16.3565L7.98918 9.95433C7.59866 9.5638 7.59866 8.93064 7.98918 8.54011Z" fill="#192028"/>
<path fill-rule="evenodd" clip-rule="evenodd" d="M15.8036 8.53996C16.1942 8.93049 16.1942 9.56365 15.8036 9.95418L9.40146 16.3564C9.01094 16.7469 8.37777 16.7469 7.98725 16.3564C7.59672 15.9658 7.59672 15.3327 7.98725 14.9421L14.3894 8.53996C14.7799 8.14944 15.4131 8.14944 15.8036 8.53996Z" fill="#192028"/>
</svg>
