<svg width="23" height="24" viewBox="0 0 23 24" fill="none" xmlns="http://www.w3.org/2000/svg">
<path fill-rule="evenodd" clip-rule="evenodd" d="M11.5 21.0723C16.2635 21.0723 20.125 17.2107 20.125 12.4473C20.125 7.68381 16.2635 3.82227 11.5 3.82227C6.73654 3.82227 2.875 7.68381 2.875 12.4473C2.875 17.2107 6.73654 21.0723 11.5 21.0723ZM11.5 23.0723C17.368 23.0723 22.125 18.3153 22.125 12.4473C22.125 6.57924 17.368 1.82227 11.5 1.82227C5.63197 1.82227 0.875 6.57924 0.875 12.4473C0.875 18.3153 5.63197 23.0723 11.5 23.0723Z" fill="#192028"/>
<path fill-rule="evenodd" clip-rule="evenodd" d="M6.25 12.4473C6.25 11.895 6.69772 11.4473 7.25 11.4473H15.75C16.3023 11.4473 16.75 11.895 16.75 12.4473C16.75 12.9996 16.3023 13.4473 15.75 13.4473H7.25C6.69772 13.4473 6.25 12.9996 6.25 12.4473Z" fill="#192028"/>
</svg>
