<svg width="22" height="22" viewBox="0 0 22 22" fill="none" xmlns="http://www.w3.org/2000/svg">
<path fill-rule="evenodd" clip-rule="evenodd" d="M10.8572 15.6275L18.4942 21.0873C18.9435 21.4085 19.5681 21.3047 19.8892 20.8554C20.2104 20.4061 20.1066 19.7815 19.6573 19.4603L11.5555 13.6681C11.1384 13.3699 10.5779 13.3697 10.1605 13.6676L2.04418 19.4598C1.59463 19.7806 1.49028 20.4051 1.8111 20.8547C2.13192 21.3042 2.75643 21.4086 3.20598 21.0878L10.8572 15.6275Z" fill="#192028"/>
<path fill-rule="evenodd" clip-rule="evenodd" d="M3.625 2.47266H19.0757C19.628 2.47266 20.0757 2.02494 20.0757 1.47266C20.0757 0.920371 19.628 0.472656 19.0757 0.472656H2.825C2.16226 0.472656 1.625 1.00992 1.625 1.67266V20.2734H3.625V2.47266Z" fill="#192028"/>
<path fill-rule="evenodd" clip-rule="evenodd" d="M18.0742 2.51714V1.47266H20.0742V2.51714C20.0742 3.06943 19.6265 3.51714 19.0742 3.51714C18.5219 3.51714 18.0742 3.06943 18.0742 2.51714ZM19.0742 5.69509C19.6265 5.69509 20.0742 6.14281 20.0742 6.69509V8.78407C20.0742 9.33635 19.6265 9.78407 19.0742 9.78407C18.5219 9.78407 18.0742 9.33635 18.0742 8.78407V6.69509C18.0742 6.14281 18.5219 5.69509 19.0742 5.69509ZM19.0742 11.962C19.6265 11.962 20.0742 12.4097 20.0742 12.962V15.051C20.0742 15.6033 19.6265 16.051 19.0742 16.051C18.5219 16.051 18.0742 15.6033 18.0742 15.051V12.962C18.0742 12.4097 18.5219 11.962 19.0742 11.962ZM19.0742 18.2289C19.6265 18.2289 20.0742 18.6767 20.0742 19.2289V20.2734C20.0742 20.8257 19.6265 21.2734 19.0742 21.2734C18.5219 21.2734 18.0742 20.8257 18.0742 20.2734V19.2289C18.0742 18.6767 18.5219 18.2289 19.0742 18.2289Z" fill="#192028"/>
</svg>
