<svg width="24" height="24" viewBox="0 0 24 24" fill="none" xmlns="http://www.w3.org/2000/svg">
<path fill-rule="evenodd" clip-rule="evenodd" d="M11.6895 3.22266C8.37574 3.22266 5.68945 5.90895 5.68945 9.22266C5.68945 12.5364 8.37574 15.2227 11.6895 15.2227C15.0032 15.2227 17.6895 12.5364 17.6895 9.22266C17.6895 5.90895 15.0032 3.22266 11.6895 3.22266ZM3.68945 9.22266C3.68945 4.80438 7.27118 1.22266 11.6895 1.22266C16.1077 1.22266 19.6895 4.80438 19.6895 9.22266C19.6895 13.6409 16.1077 17.2227 11.6895 17.2227C7.27118 17.2227 3.68945 13.6409 3.68945 9.22266Z" fill="#192028"/>
<path fill-rule="evenodd" clip-rule="evenodd" d="M8.68945 20.4358V15.2227H6.68945V21.8653C6.68945 22.8034 7.71748 23.3787 8.51705 22.8881L11.6895 20.9415L14.8619 22.8881C15.6614 23.3787 16.6895 22.8034 16.6895 21.8653V19.2227C16.6895 18.6704 16.2417 18.2227 15.6895 18.2227C15.1372 18.2227 14.6895 18.6704 14.6895 19.2227V20.4358L12.3171 18.9801C11.932 18.7438 11.4469 18.7438 11.0619 18.9801L8.68945 20.4358Z" fill="#192028"/>
</svg>
