<svg width="24" height="24" viewBox="0 0 24 24" fill="none" xmlns="http://www.w3.org/2000/svg">
<path fill-rule="evenodd" clip-rule="evenodd" d="M19.8786 6.44929L17.586 8.73985C17.1953 9.1302 17.195 9.76336 17.5854 10.1541C17.9757 10.5448 18.6089 10.545 18.9996 10.1547L21.8581 7.2987C22.3269 6.83027 22.3273 6.07048 21.8589 5.60164L19.0002 2.74047C18.6099 2.34977 17.9767 2.34949 17.586 2.73985C17.1953 3.1302 17.195 3.76336 17.5854 4.15406L19.8786 6.44929Z" fill="#192028"/>
<path fill-rule="evenodd" clip-rule="evenodd" d="M4.70735 18.4452L6.99993 16.1547C7.39062 15.7643 7.3909 15.1312 7.00055 14.7405C6.6102 14.3498 5.97704 14.3495 5.58634 14.7398L2.72782 17.5958C2.25899 18.0643 2.25865 18.8241 2.72707 19.2929L5.58571 22.1541C5.97607 22.5448 6.60923 22.545 6.99993 22.1547C7.39062 21.7643 7.3909 21.1312 7.00055 20.7405L4.70735 18.4452Z" fill="#192028"/>
<path fill-rule="evenodd" clip-rule="evenodd" d="M7.29297 7.44727C5.63611 7.44727 4.29297 8.79041 4.29297 10.4473V11.4473C4.29297 11.9996 3.84525 12.4473 3.29297 12.4473C2.74068 12.4473 2.29297 11.9996 2.29297 11.4473V10.4473C2.29297 7.68584 4.53155 5.44727 7.29297 5.44727H21.293C21.8453 5.44727 22.293 5.89498 22.293 6.44727C22.293 6.99955 21.8453 7.44727 21.293 7.44727H7.29297Z" fill="#192028"/>
<path fill-rule="evenodd" clip-rule="evenodd" d="M21.293 12.4473C21.8453 12.4473 22.293 12.895 22.293 13.4473V14.4473C22.293 17.2087 20.0544 19.4473 17.293 19.4473H3.29297C2.74068 19.4473 2.29297 18.9996 2.29297 18.4473C2.29297 17.895 2.74068 17.4473 3.29297 17.4473H17.293C18.9498 17.4473 20.293 16.1041 20.293 14.4473V13.4473C20.293 12.895 20.7407 12.4473 21.293 12.4473Z" fill="#192028"/>
</svg>
