<svg width="25" height="25" viewBox="0 0 25 25" fill="none" xmlns="http://www.w3.org/2000/svg">
<path fill-rule="evenodd" clip-rule="evenodd" d="M2.75 4.48535C2.75 3.93307 3.19772 3.48535 3.75 3.48535L20.8125 3.48535C21.3648 3.48535 21.8125 3.93307 21.8125 4.48535C21.8125 5.03764 21.3648 5.48535 20.8125 5.48535L3.75 5.48535C3.19772 5.48535 2.75 5.03764 2.75 4.48535Z" fill="#192028"/>
<path fill-rule="evenodd" clip-rule="evenodd" d="M2.75 20.2354C2.75 19.6831 3.19772 19.2354 3.75 19.2354L20.8125 19.2354C21.3648 19.2354 21.8125 19.6831 21.8125 20.2354C21.8125 20.7876 21.3648 21.2354 20.8125 21.2354L3.75 21.2354C3.19772 21.2354 2.75 20.7876 2.75 20.2354Z" fill="#192028"/>
<path fill-rule="evenodd" clip-rule="evenodd" d="M2.75 12.3604C2.75 11.8081 3.19772 11.3604 3.75 11.3604L20.8125 11.3604C21.3648 11.3604 21.8125 11.8081 21.8125 12.3604C21.8125 12.9126 21.3648 13.3604 20.8125 13.3604L3.75 13.3604C3.19772 13.3604 2.75 12.9126 2.75 12.3604Z" fill="#192028"/>
</svg>
