<svg width="24" height="24" viewBox="0 0 24 24" fill="none" xmlns="http://www.w3.org/2000/svg">
<path fill-rule="evenodd" clip-rule="evenodd" d="M12.293 20.9727C17.1255 20.9727 21.043 17.0551 21.043 12.2227C21.043 7.39016 17.1255 3.47266 12.293 3.47266C7.46048 3.47266 3.54297 7.39016 3.54297 12.2227C3.54297 17.0551 7.46048 20.9727 12.293 20.9727ZM12.293 22.9727C18.23 22.9727 23.043 18.1597 23.043 12.2227C23.043 6.2856 18.23 1.47266 12.293 1.47266C6.35591 1.47266 1.54297 6.2856 1.54297 12.2227C1.54297 18.1597 6.35591 22.9727 12.293 22.9727Z" fill="#192028"/>
<path fill-rule="evenodd" clip-rule="evenodd" d="M17.3227 9.38833C17.7004 9.79124 17.68 10.4241 17.2771 10.8018L10.8598 16.818L7.30923 13.4893C6.90631 13.1116 6.8859 12.4787 7.26363 12.0758C7.64136 11.6729 8.2742 11.6525 8.67711 12.0302L10.8598 14.0765L15.9092 9.34273C16.3121 8.965 16.945 8.98542 17.3227 9.38833Z" fill="#192028"/>
</svg>
