<svg width="23" height="24" viewBox="0 0 23 24" fill="none" xmlns="http://www.w3.org/2000/svg">
<path fill-rule="evenodd" clip-rule="evenodd" d="M4.38281 2.66504V21.5378H18.6172V10.7822H11.7C11.0373 10.7822 10.5 10.245 10.5 9.58223V2.66504H4.38281ZM12.5 4.07925L15.4313 7.01054C15.8218 7.40106 16.455 7.40106 16.8455 7.01054C17.236 6.62001 17.236 5.98685 16.8455 5.59632L12.2657 1.01651C12.0406 0.791467 11.7354 0.665039 11.4172 0.665039H3.58281C2.92006 0.665039 2.38281 1.20231 2.38281 1.86504V22.3378C2.38281 23.0006 2.92007 23.5378 3.58281 23.5378H19.4172C20.0799 23.5378 20.6172 23.0005 20.6172 22.3378V9.98223C20.6172 9.31949 20.0799 8.78223 19.4172 8.78223H12.5V4.07925Z" fill="#192028"/>
</svg>
