<svg width="23" height="23" viewBox="0 0 23 23" fill="none" xmlns="http://www.w3.org/2000/svg">
<path fill-rule="evenodd" clip-rule="evenodd" d="M5.5 4.08984C3.84228 4.08984 2.5 5.43213 2.5 7.08984V12.5898C2.5 14.1489 3.69235 15.4319 5.21319 15.5742C5.76307 15.6257 6.16712 16.1132 6.11565 16.663C6.06418 17.2129 5.57669 17.617 5.02681 17.5655C2.48765 17.3278 0.5 15.1908 0.5 12.5898V7.08984C0.5 4.32756 2.73772 2.08984 5.5 2.08984H17.5C20.2623 2.08984 22.5 4.32756 22.5 7.08984V12.5898C22.5 15.3521 20.2623 17.5898 17.5 17.5898H11.7659L6.30358 20.7738C5.82644 21.0519 5.21418 20.8906 4.93605 20.4134C4.65793 19.9363 4.81927 19.324 5.29642 19.0459L10.9341 15.7598L10.9628 15.7454C11.1336 15.66 11.3562 15.5898 11.61 15.5898H17.5C19.1577 15.5898 20.5 14.2476 20.5 12.5898V7.08984C20.5 5.43213 19.1577 4.08984 17.5 4.08984H5.5Z" fill="#192028"/>
</svg>
