<svg width="23" height="24" viewBox="0 0 23 24" fill="none" xmlns="http://www.w3.org/2000/svg">
<path fill-rule="evenodd" clip-rule="evenodd" d="M5.7 7.94727C4.54376 7.94727 3.5 8.96504 3.5 10.3593V16.5352C3.5 17.9295 4.54376 18.9473 5.7 18.9473H15.3C16.4562 18.9473 17.5 17.9295 17.5 16.5352V13.9473C17.5 13.395 17.9477 12.9473 18.5 12.9473C19.0523 12.9473 19.5 13.395 19.5 13.9473V16.5352C19.5 18.9112 17.6798 20.9473 15.3 20.9473H5.7C3.32024 20.9473 1.5 18.9112 1.5 16.5352V10.3593C1.5 7.9833 3.32024 5.94727 5.7 5.94727H11.5C12.0523 5.94727 12.5 6.39498 12.5 6.94727C12.5 7.49955 12.0523 7.94727 11.5 7.94727H5.7Z" fill="#192028"/>
<path fill-rule="evenodd" clip-rule="evenodd" d="M18 5.94727C17.1716 5.94727 16.5 6.61884 16.5 7.44727C16.5 8.27569 17.1716 8.94727 18 8.94727C18.8284 8.94727 19.5 8.27569 19.5 7.44727C19.5 6.61884 18.8284 5.94727 18 5.94727ZM14.5 7.44727C14.5 5.51427 16.067 3.94727 18 3.94727C19.933 3.94727 21.5 5.51427 21.5 7.44727C21.5 9.38026 19.933 10.9473 18 10.9473C16.067 10.9473 14.5 9.38026 14.5 7.44727Z" fill="#192028"/>
</svg>
