<svg width="24" height="24" viewBox="0 0 24 24" fill="none" xmlns="http://www.w3.org/2000/svg">
<path fill-rule="evenodd" clip-rule="evenodd" d="M15.869 18.2319C18.1538 15.8473 19.8965 13.0521 19.8965 10.5798C19.8965 6.26745 16.342 2.72266 11.8965 2.72266C7.45098 2.72266 3.89648 6.26745 3.89648 10.5798C3.89648 13.0521 5.63921 15.8473 7.92394 18.2319C9.01976 19.3756 10.1447 20.3243 11.0406 20.975C11.3761 21.2187 11.6651 21.4101 11.8965 21.5502C12.1279 21.4101 12.4169 21.2187 12.7524 20.975C13.6483 20.3243 14.7732 19.3756 15.869 18.2319ZM11.4583 21.7867C11.4327 21.7967 11.4371 21.7929 11.4664 21.7834C11.4631 21.7847 11.4604 21.7858 11.4583 21.7867ZM12.3266 21.7834C12.3559 21.7929 12.3603 21.7967 12.3347 21.7867C12.3326 21.7858 12.3299 21.7847 12.3266 21.7834ZM11.8965 23.7227C13.0076 23.7227 21.8965 17.1512 21.8965 10.5798C21.8965 5.13585 17.4193 0.722656 11.8965 0.722656C6.37364 0.722656 1.89648 5.13585 1.89648 10.5798C1.89648 17.1512 10.7854 23.7227 11.8965 23.7227Z" fill="#192028"/>
<path fill-rule="evenodd" clip-rule="evenodd" d="M11.8965 8.72266C10.7919 8.72266 9.89648 9.61809 9.89648 10.7227C9.89648 11.8272 10.7919 12.7227 11.8965 12.7227C13.0011 12.7227 13.8965 11.8272 13.8965 10.7227C13.8965 9.61809 13.0011 8.72266 11.8965 8.72266ZM7.89648 10.7227C7.89648 8.51352 9.68735 6.72266 11.8965 6.72266C14.1056 6.72266 15.8965 8.51352 15.8965 10.7227C15.8965 12.9318 14.1056 14.7227 11.8965 14.7227C9.68735 14.7227 7.89648 12.9318 7.89648 10.7227Z" fill="#192028"/>
</svg>
