<svg width="23" height="24" viewBox="0 0 23 24" fill="none" xmlns="http://www.w3.org/2000/svg">
<path fill-rule="evenodd" clip-rule="evenodd" d="M7.93114 12.8252C10.551 12.8252 12.6748 10.7014 12.6748 8.08153C12.6748 5.46169 10.551 3.33789 7.93114 3.33789C5.3113 3.33789 3.1875 5.46169 3.1875 8.08153C3.1875 10.7014 5.3113 12.8252 7.93114 12.8252ZM7.93114 14.8252C11.6555 14.8252 14.6748 11.8059 14.6748 8.08153C14.6748 4.35712 11.6555 1.33789 7.93114 1.33789C4.20673 1.33789 1.1875 4.35712 1.1875 8.08153C1.1875 11.8059 4.20673 14.8252 7.93114 14.8252Z" fill="#192028"/>
<path fill-rule="evenodd" clip-rule="evenodd" d="M10.8869 12.8016L17.9271 19.8419C18.3177 20.2324 18.9508 20.2324 19.3414 19.8419L19.6919 19.4913C20.0824 19.1008 20.0824 18.4676 19.6919 18.0771L12.6516 11.0368L14.0659 9.62263L21.1061 16.6629C22.2777 17.8345 22.2777 19.734 21.1061 20.9055L20.7556 21.2561C19.584 22.4277 17.6845 22.4277 16.5129 21.2561L9.47266 14.2158L10.8869 12.8016Z" fill="#192028"/>
</svg>
