<svg width="24" height="24" viewBox="0 0 24 24" fill="none" xmlns="http://www.w3.org/2000/svg">
<path fill-rule="evenodd" clip-rule="evenodd" d="M11.9326 20.1016C16.3509 20.1016 19.9326 16.5198 19.9326 12.1016C19.9326 7.68328 16.3509 4.10156 11.9326 4.10156C7.51434 4.10156 3.93262 7.68328 3.93262 12.1016C3.93262 16.5198 7.51434 20.1016 11.9326 20.1016ZM11.9326 22.1016C17.4555 22.1016 21.9326 17.6244 21.9326 12.1016C21.9326 6.57871 17.4555 2.10156 11.9326 2.10156C6.40977 2.10156 1.93262 6.57871 1.93262 12.1016C1.93262 17.6244 6.40977 22.1016 11.9326 22.1016Z" fill="#192028"/>
<path d="M13.3142 7.13379H11.0742L11.5082 13.9798H12.8802L13.3142 7.13379ZM13.1602 15.2398H11.2282V17.1018H13.1602V15.2398Z" fill="#192028"/>
</svg>
