<svg width="24" height="24" viewBox="0 0 24 24" fill="none" xmlns="http://www.w3.org/2000/svg">
<path fill-rule="evenodd" clip-rule="evenodd" d="M1.98242 11.9973C1.98242 11.0032 2.78831 10.1973 3.78242 10.1973H7.18242C8.17653 10.1973 8.98242 11.0032 8.98242 11.9973V20.3973C8.98242 21.3914 8.17654 22.1973 7.18242 22.1973H3.78242C2.78831 22.1973 1.98242 21.3914 1.98242 20.3973V11.9973ZM3.98242 12.1973V20.1973H6.98242V12.1973H3.98242Z" fill="#192028"/>
<path fill-rule="evenodd" clip-rule="evenodd" d="M13.9824 4.69727V5.47317C13.9824 6.17497 13.7364 6.85457 13.2871 7.39372L11.2506 9.83745C10.8971 10.2617 10.2665 10.3191 9.84224 9.96549C9.41796 9.61192 9.36064 8.98136 9.7142 8.55708L11.7506 6.11335C11.9004 5.93363 11.9824 5.7071 11.9824 5.47317V4.49727C11.9824 3.50315 12.7883 2.69727 13.7824 2.69727H14.4824C16.1393 2.69727 17.4824 4.04041 17.4824 5.69727V6.03174C17.4824 6.19698 17.4688 6.36194 17.4416 6.52494L17.1629 8.19727H19.4209C21.3726 8.19727 22.8047 10.0314 22.3313 11.9249L20.8313 17.9249C20.4974 19.2604 19.2975 20.1973 17.9209 20.1973H7.98242V18.1973H17.9209C18.3797 18.1973 18.7797 17.885 18.891 17.4398L20.391 11.4398C20.5488 10.8087 20.0714 10.1973 19.4209 10.1973H16.9268C15.8145 10.1973 14.9684 9.1985 15.1513 8.10135L15.4688 6.19614C15.4779 6.14181 15.4824 6.08682 15.4824 6.03174V5.69727C15.4824 5.14498 15.0347 4.69727 14.4824 4.69727H13.9824Z" fill="#192028"/>
</svg>
