<svg width="24" height="24" viewBox="0 0 24 24" fill="none" xmlns="http://www.w3.org/2000/svg">
<path fill-rule="evenodd" clip-rule="evenodd" d="M11.9227 9.65017C13.5941 9.65017 14.949 8.29527 14.949 6.62392C14.949 4.95256 13.5941 3.59766 11.9227 3.59766C10.2514 3.59766 8.89648 4.95256 8.89648 6.62392C8.89648 8.29527 10.2514 9.65017 11.9227 9.65017ZM11.9227 11.6502C14.6987 11.6502 16.949 9.39984 16.949 6.62392C16.949 3.84799 14.6987 1.59766 11.9227 1.59766C9.14682 1.59766 6.89648 3.84799 6.89648 6.62392C6.89648 9.39984 9.14682 11.6502 11.9227 11.6502Z" fill="#192028"/>
<path fill-rule="evenodd" clip-rule="evenodd" d="M2.82795 19.7026H21.0162C20.1021 15.5227 16.3756 12.3936 11.9221 12.3936C7.46862 12.3936 3.74213 15.5227 2.82795 19.7026ZM21.2338 19.7024C21.2339 19.7025 21.2334 19.7026 21.2322 19.7026ZM2.612 19.7026C2.61088 19.7026 2.61035 19.7025 2.61036 19.7024ZM0.787628 19.7121C1.72814 14.4155 6.35542 10.3936 11.9221 10.3936C17.4888 10.3936 22.1161 14.4155 23.0566 19.7121C23.2497 20.7996 22.3357 21.7026 21.2312 21.7026H2.61301C1.50844 21.7026 0.594511 20.7996 0.787628 19.7121Z" fill="#192028"/>
</svg>
