<svg width="23" height="24" viewBox="0 0 23 24" fill="none" xmlns="http://www.w3.org/2000/svg">
<path fill-rule="evenodd" clip-rule="evenodd" d="M11.5 20.9727C16.3325 20.9727 20.25 17.0551 20.25 12.2227C20.25 7.39016 16.3325 3.47266 11.5 3.47266C6.66751 3.47266 2.75 7.39016 2.75 12.2227C2.75 17.0551 6.66751 20.9727 11.5 20.9727ZM11.5 22.9727C17.4371 22.9727 22.25 18.1597 22.25 12.2227C22.25 6.2856 17.4371 1.47266 11.5 1.47266C5.56294 1.47266 0.75 6.2856 0.75 12.2227C0.75 18.1597 5.56294 22.9727 11.5 22.9727Z" fill="#192028"/>
<path fill-rule="evenodd" clip-rule="evenodd" d="M11.5 6.92285C12.0523 6.92285 12.5 7.37057 12.5 7.92285V12.1423L15.1722 13.4784C15.6662 13.7254 15.8664 14.3261 15.6194 14.8201C15.3724 15.314 14.7718 15.5143 14.2778 15.2673L10.5 13.3784V7.92285C10.5 7.37057 10.9477 6.92285 11.5 6.92285Z" fill="#192028"/>
</svg>
