<svg width="24" height="24" viewBox="0 0 24 24" fill="none" xmlns="http://www.w3.org/2000/svg">
<path fill-rule="evenodd" clip-rule="evenodd" d="M12.0469 4.08493C10.7134 2.53678 9.0171 1.76885 7.33288 1.74009C5.28183 1.70507 3.34661 2.7762 2.31493 4.65307C1.27594 6.54323 1.22367 9.10295 2.59276 11.9584C3.95604 14.8018 6.73972 17.9827 11.4747 21.2849C11.8184 21.5246 12.2749 21.5246 12.6186 21.285C17.3557 17.9829 20.1407 14.802 21.5046 11.9586C22.8743 9.10304 22.822 6.54316 21.7825 4.65289C20.7503 2.77599 18.8143 1.70507 16.7628 1.74009C15.078 1.76885 13.3811 2.53669 12.0469 4.08493ZM12.0469 19.2391C7.8435 16.2112 5.51058 13.418 4.39618 11.0938C3.23803 8.67823 3.40822 6.81605 4.0676 5.61648C4.73429 4.40361 5.97336 3.71717 7.29873 3.7398C8.60411 3.76209 10.0934 4.4819 11.1896 6.30594C11.3704 6.60676 11.6957 6.79077 12.0467 6.79081C12.3976 6.79084 12.7229 6.60688 12.9038 6.3061C14.0005 4.48212 15.4905 3.7621 16.7969 3.7398C18.1233 3.71716 19.363 4.40382 20.03 5.61665C20.6897 6.81612 20.86 8.67814 19.7013 11.0936C18.5864 13.4179 16.2524 16.2111 12.0469 19.2391Z" fill="#192028"/>
</svg>
