<svg width="24" height="22" viewBox="0 0 24 22" fill="none" xmlns="http://www.w3.org/2000/svg">
<path fill-rule="evenodd" clip-rule="evenodd" d="M7.90633 0.881583C8.34822 0.550298 8.975 0.639963 9.30629 1.08185L12.0005 4.67561L14.6947 1.08185C15.026 0.639963 15.6528 0.550298 16.0947 0.881583C16.5366 1.21287 16.6263 1.83965 16.295 2.28154L13.2503 6.34271L23.0608 19.4286C23.6538 20.2197 23.0894 21.3484 22.1006 21.3484H1.90042C0.91168 21.3484 0.347183 20.2197 0.940281 19.4286L10.7507 6.34271L7.70606 2.28154C7.37477 1.83965 7.46444 1.21287 7.90633 0.881583ZM12.0005 8.00981L3.50003 19.3484H20.501L12.0005 8.00981Z" fill="#FDFDFE"/>
</svg>
