<svg width="22" height="22" viewBox="0 0 22 22" fill="none" xmlns="http://www.w3.org/2000/svg">
<path fill-rule="evenodd" clip-rule="evenodd" d="M10.8763 9.01536C12.3263 9.01536 13.5017 7.83995 13.5017 6.39001C13.5017 4.94006 12.3263 3.76465 10.8763 3.76465C9.42639 3.76465 8.25098 4.94006 8.25098 6.39001C8.25098 7.83995 9.42639 9.01536 10.8763 9.01536ZM10.8763 11.0154C13.4308 11.0154 15.5017 8.94452 15.5017 6.39001C15.5017 3.83549 13.4308 1.76465 10.8763 1.76465C8.32182 1.76465 6.25098 3.83549 6.25098 6.39001C6.25098 8.94452 8.32182 11.0154 10.8763 11.0154Z" fill="#FDFDFE"/>
<path fill-rule="evenodd" clip-rule="evenodd" d="M2.70719 18.2655H19.0436C18.1469 14.5879 14.8279 11.8584 10.8754 11.8584C6.92287 11.8584 3.60381 14.5879 2.70719 18.2655ZM19.2853 18.2652C19.2853 18.2653 19.2846 18.2654 19.2832 18.2654ZM2.46751 18.2654C2.46613 18.2654 2.46548 18.2653 2.46549 18.2652ZM0.658078 18.277C1.5861 13.4805 5.80775 9.8584 10.8754 9.8584C15.943 9.8584 20.1646 13.4805 21.0927 18.277C21.3025 19.3614 20.387 20.2655 19.2824 20.2655H2.46832C1.36375 20.2655 0.448257 19.3614 0.658078 18.277Z" fill="#FDFDFE"/>
</svg>
