<svg width="23" height="22" viewBox="0 0 23 22" fill="none" xmlns="http://www.w3.org/2000/svg">
<path fill-rule="evenodd" clip-rule="evenodd" d="M5.34961 5.01465C3.7372 5.01465 2.34961 6.39978 2.34961 8.21412V15.8152C2.34961 17.6295 3.7372 19.0146 5.34961 19.0146H17.3496C18.962 19.0146 20.3496 17.6295 20.3496 15.8152V8.21412C20.3496 6.39978 18.962 5.01465 17.3496 5.01465H5.34961ZM0.349609 8.21412C0.349609 5.38805 2.54202 3.01465 5.34961 3.01465H17.3496C20.1572 3.01465 22.3496 5.38805 22.3496 8.21412V15.8152C22.3496 18.6413 20.1572 21.0146 17.3496 21.0146H5.34961C2.54202 21.0146 0.349609 18.6413 0.349609 15.8152V8.21412Z" fill="#FDFDFE"/>
<path fill-rule="evenodd" clip-rule="evenodd" d="M21.1159 11.5244H1.58594V9.52441H21.1159V11.5244Z" fill="#FDFDFE"/>
</svg>
