<svg width="41" height="26" viewBox="0 0 41 26" fill="none" xmlns="http://www.w3.org/2000/svg">
<path fill-rule="evenodd" clip-rule="evenodd" d="M15.9697 5.13965C15.9697 4.58736 16.4174 4.13965 16.9697 4.13965L34.0322 4.13965C34.5845 4.13965 35.0322 4.58737 35.0322 5.13965C35.0322 5.69194 34.5845 6.13965 34.0322 6.13965L16.9697 6.13965C16.4174 6.13965 15.9697 5.69193 15.9697 5.13965Z" fill="#FDFDFE"/>
<path fill-rule="evenodd" clip-rule="evenodd" d="M15.9697 20.8896C15.9697 20.3374 16.4174 19.8896 16.9697 19.8896L34.0322 19.8897C34.5845 19.8897 35.0322 20.3374 35.0322 20.8897C35.0322 21.4419 34.5845 21.8897 34.0322 21.8897L16.9697 21.8896C16.4174 21.8896 15.9697 21.4419 15.9697 20.8896Z" fill="#FDFDFE"/>
<path fill-rule="evenodd" clip-rule="evenodd" d="M15.9697 13.0146C15.9697 12.4624 16.4174 12.0146 16.9697 12.0146L34.0322 12.0147C34.5845 12.0147 35.0322 12.4624 35.0322 13.0147C35.0322 13.5669 34.5845 14.0147 34.0322 14.0147L16.9697 14.0146C16.4174 14.0146 15.9697 13.5669 15.9697 13.0146Z" fill="#FDFDFE"/>
<path fill-rule="evenodd" clip-rule="evenodd" d="M11.0087 8.2417C11.454 8.56838 11.5502 9.19419 11.2235 9.6395L8.76184 12.9951L11.2235 16.3507C11.5502 16.796 11.454 17.4219 11.0087 17.7485C10.5634 18.0752 9.93756 17.979 9.61088 17.5337L6.80209 13.7049C6.49218 13.2825 6.49218 12.7078 6.80209 12.2853L9.61088 8.4565C9.93756 8.01119 10.5634 7.91502 11.0087 8.2417Z" fill="#FDFDFE"/>
</svg>
