<svg width="24" height="24" viewBox="0 0 24 24" fill="none" xmlns="http://www.w3.org/2000/svg">
<path fill-rule="evenodd" clip-rule="evenodd" d="M11.6504 4.56445C10.5458 4.56445 9.65039 5.45988 9.65039 6.56445C9.65039 7.66902 10.5458 8.56445 11.6504 8.56445C12.755 8.56445 13.6504 7.66902 13.6504 6.56445C13.6504 5.45988 12.755 4.56445 11.6504 4.56445ZM7.65039 6.56445C7.65039 4.35531 9.44125 2.56445 11.6504 2.56445C13.8595 2.56445 15.6504 4.35531 15.6504 6.56445C15.6504 8.77359 13.8595 10.5645 11.6504 10.5645C9.44125 10.5645 7.65039 8.77359 7.65039 6.56445Z" fill="#FDFDFE"/>
<path fill-rule="evenodd" clip-rule="evenodd" d="M16.6504 11.5645C16.0981 11.5645 15.6504 12.0122 15.6504 12.5645C15.6504 13.1167 16.0981 13.5645 16.6504 13.5645C17.2027 13.5645 17.6504 13.1167 17.6504 12.5645C17.6504 12.0122 17.2027 11.5645 16.6504 11.5645ZM13.6504 12.5645C13.6504 10.9076 14.9935 9.56445 16.6504 9.56445C18.3072 9.56445 19.6504 10.9076 19.6504 12.5645C19.6504 14.2213 18.3072 15.5645 16.6504 15.5645C14.9935 15.5645 13.6504 14.2213 13.6504 12.5645Z" fill="#FDFDFE"/>
<path fill-rule="evenodd" clip-rule="evenodd" d="M11.6504 10.5645C7.29338 10.5645 3.65748 13.6615 2.82813 17.7749C2.7885 17.9714 2.84399 18.1455 2.9816 18.2919C3.12853 18.4482 3.36825 18.5645 3.65041 18.5645H8.65041C9.20269 18.5645 9.65041 19.0122 9.65041 19.5645C9.65041 20.1167 9.20269 20.5645 8.65041 20.5645H3.65041C2.06268 20.5645 0.496667 19.2192 0.867586 17.3796C1.88143 12.3512 6.32258 8.56445 11.6504 8.56445C12.2027 8.56445 12.6504 9.01217 12.6504 9.56445C12.6504 10.1167 12.2027 10.5645 11.6504 10.5645Z" fill="#FDFDFE"/>
<path fill-rule="evenodd" clip-rule="evenodd" d="M12.776 18.5645H20.5244C20.0808 16.8394 18.5136 15.5645 16.6502 15.5645C14.7869 15.5645 13.2197 16.8394 12.776 18.5645ZM10.726 18.6094C11.184 15.7494 13.661 13.5645 16.6502 13.5645C19.6394 13.5645 22.1164 15.7494 22.5745 18.6094C22.759 19.7618 21.7924 20.5645 20.8502 20.5645H12.4502C11.5081 20.5645 10.5414 19.7618 10.726 18.6094Z" fill="#FDFDFE"/>
</svg>
